<svg xmlns="http://www.w3.org/2000/svg" viewBox="0 0 200 60" fill="#FFFFFF">
  <!-- Apple icon -->
  <path d="M100 3.5c-2.1 0-4.7 1.5-6.2 3.4-1.4 1.7-2.5 4.2-2 6.6 2.3.2 4.6-.8 6.1-2.4 1.5-1.6 2.5-3.9 2.1-7.6z" transform="translate(-50, 2) scale(0.95)"/>
  <path d="M93.8 14.8c-3.3 0-6.3 1.9-7.9 1.9-1.7 0-4.2-1.8-6.9-1.8-3.6 0-6.8 2.1-8.7 5.3-3.7 6.4-1 15.9 2.6 21.1 1.8 2.6 3.9 5.4 6.6 5.3 2.7-.1 3.7-1.7 6.9-1.7 3.2 0 4.1 1.7 6.9 1.6 2.8-.1 4.7-2.6 6.5-5.2 2-2.9 2.9-5.8 2.9-5.9-.1-.1-5.6-2.2-5.7-8.5 0-5.3 4.3-7.8 4.5-8-2.5-3.6-6.3-4-7.7-4.1z" transform="translate(-50, 2) scale(0.95)"/>
</svg>