<svg xmlns="http://www.w3.org/2000/svg" viewBox="0 0 200 60" fill="#FFFFFF">
  <!-- Coca-Cola script wordmark approximation -->
  <path d="M20 42c-5.5 0-9.5-4.5-9.5-11s4-11 9.5-11c3.5 0 6 1.5 7.5 4l-3 2c-1-1.5-2.5-2.5-4.5-2.5-3.5 0-5.5 3-5.5 7.5s2 7.5 5.5 7.5c2 0 3.5-1 4.5-2.5l3 2c-1.5 2.5-4 4-7.5 4z"/>
  <path d="M36 42c-4.5 0-7.5-3.5-7.5-8.5s3-8.5 7.5-8.5 7.5 3.5 7.5 8.5-3 8.5-7.5 8.5zm0-3.5c2.5 0 4-2 4-5s-1.5-5-4-5-4 2-4 5 1.5 5 4 5z"/>
  <path d="M52 42c-4 0-7-3.5-7-8.5s3-8.5 7-8.5c2.5 0 4.5 1 5.5 3l-2.5 2c-.5-1.2-1.5-1.8-3-1.8-2.5 0-4 2-4 5.3s1.5 5.3 4 5.3c1.5 0 2.5-.8 3-2l2.5 1.5c-1 2.2-3 3.7-5.5 3.7z"/>
  <path d="M64 42c-2 0-3.5-.5-4.5-1.5l1.5-2.5c.8.8 2 1.2 3 1.2 1.5 0 2-.5 2-1.5 0-.8-.5-1.2-2-1.5l-1-.3c-2.5-.7-3.5-2-3.5-4 0-2.5 2-4.3 5-4.3 2 0 3.5.5 4.5 1.5l-1.5 2.2c-.8-.7-1.8-1-2.8-1-1.2 0-2 .5-2 1.3 0 .8.5 1.2 1.8 1.5l1.2.3c2.5.7 3.5 2 3.5 4 0 2.8-2 4.6-5.2 4.6z"/>
  <rect x="73" y="20" width="3" height="1.5" rx="0.5"/>
  <path d="M78 39h7v3h-7z"/>
  <path d="M92 42c-5.5 0-9.5-4.5-9.5-11s4-11 9.5-11c3.5 0 6 1.5 7.5 4l-3 2c-1-1.5-2.5-2.5-4.5-2.5-3.5 0-5.5 3-5.5 7.5s2 7.5 5.5 7.5c2 0 3.5-1 4.5-2.5l3 2c-1.5 2.5-4 4-7.5 4z"/>
  <path d="M108 42c-4.5 0-7.5-3.5-7.5-8.5s3-8.5 7.5-8.5 7.5 3.5 7.5 8.5-3 8.5-7.5 8.5zm0-3.5c2.5 0 4-2 4-5s-1.5-5-4-5-4 2-4 5 1.5 5 4 5z"/>
  <rect x="118" y="12" width="3" height="29"/>
  <path d="M130 42c-2 0-3.5-.5-4.5-1.5l1.5-2.5c.8.8 2 1.2 3 1.2 1.5 0 2-.5 2-1.5 0-.8-.5-1.2-2-1.5l-1-.3c-2.5-.7-3.5-2-3.5-4 0-2.5 2-4.3 5-4.3 2 0 3.5.5 4.5 1.5l-1.5 2.2c-.8-.7-1.8-1-2.8-1-1.2 0-2 .5-2 1.3 0 .8.5 1.2 1.8 1.5l1.2.3c2.5.7 3.5 2 3.5 4 0 2.8-2 4.6-5.2 4.6z"/>
</svg>