<svg xmlns="http://www.w3.org/2000/svg" viewBox="0 0 200 60" fill="#FFFFFF">
  <!-- Google wordmark -->
  <path d="M34.8 30.5c0-1.8-.2-3.2-.5-4.6H18v8.7h9.4c-.4 2.1-1.6 3.9-3.5 5.1v4.2h5.6c3.3-3 5.3-7.5 5.3-13.4z"/>
  <path d="M18 48c4.7 0 8.7-1.6 11.6-4.2l-5.6-4.4c-1.6 1.1-3.6 1.7-6 1.7-4.6 0-8.5-3.1-9.9-7.3H2.3v4.3C5.2 44.4 11.1 48 18 48z"/>
  <path d="M8.1 33.8c-.7-2.1-.7-4.4 0-6.5v-4.3H2.3C-.1 26.4-.1 32.5 2.3 37l5.8-3.2z"/>
  <path d="M18 12.9c2.5 0 4.8.9 6.6 2.6l4.9-4.9C26.6 7.9 22.7 6 18 6 11.1 6 5.2 9.6 2.3 16l5.8 4.3c1.4-4.2 5.3-7.4 9.9-7.4z"/>
  <path d="M55.2 17.4c-2.7 0-4.9.9-6.5 2.8l2.5 2c1-1.2 2.3-1.8 3.8-1.8 2 0 3.7 1.2 3.7 3.2v.5c-1-.6-2.5-1-4.2-1-4 0-7.2 2.2-7.2 5.6 0 3.1 2.7 5.4 6.2 5.4 2.2 0 3.8-.8 5.2-2.3v2h3.2V24c0-4.1-3-6.6-6.7-6.6zm-.6 15.2c-1.6 0-3.2-.8-3.2-2.4 0-1.8 1.7-2.7 3.8-2.7 1.4 0 2.7.4 3.7 1-.3 2.5-2.2 4.1-4.3 4.1z"/>
  <path d="M73.9 17.4c-4.5 0-7.8 3.4-7.8 8.3s3.3 8.3 7.8 8.3c4.5 0 7.8-3.4 7.8-8.3s-3.3-8.3-7.8-8.3zm0 13.4c-2.5 0-4.5-2-4.5-5.1s2-5.1 4.5-5.1 4.5 2 4.5 5.1-2 5.1-4.5 5.1z"/>
  <path d="M93.4 17.4c-4.5 0-7.8 3.4-7.8 8.3s3.3 8.3 7.8 8.3c4.5 0 7.8-3.4 7.8-8.3s-3.3-8.3-7.8-8.3zm0 13.4c-2.5 0-4.5-2-4.5-5.1s2-5.1 4.5-5.1 4.5 2 4.5 5.1-2 5.1-4.5 5.1z"/>
  <path d="M40.4 17.4c-4.5 0-7.8 3.4-7.8 8.3s3.3 8.3 7.8 8.3c4.5 0 7.8-3.4 7.8-8.3s-3.3-8.3-7.8-8.3zm0 13.4c-2.5 0-4.5-2-4.5-5.1s2-5.1 4.5-5.1 4.5 2 4.5 5.1-2 5.1-4.5 5.1z"/>
  <path d="M109.9 17.4c-2.2 0-3.8.9-5.1 2.6v-2.3H102v23.7h3.3v-8.5c1.2 1.5 2.8 2.3 4.8 2.3 4 0 7.3-3.5 7.3-8.3 0-5.2-3.1-9.5-7.5-9.5zm-.5 13.4c-2.5 0-4.5-2.2-4.5-5.2 0-3 2-5.2 4.5-5.2s4.2 2.2 4.2 5.2c0 3-1.7 5.2-4.2 5.2z"/>
  <rect x="118" y="10" width="3.3" height="23.5" rx="1"/>
  <path d="M132.8 17.4c-4.6 0-7.6 3.5-7.6 8.3 0 5 3.2 8.3 7.9 8.3 2.7 0 4.8-.9 6.3-2.8l-2.3-1.8c-1 1.2-2.3 1.8-3.8 1.8-2.4 0-4.1-1.4-4.6-3.8h11.3c.1-.5.1-1 .1-1.5 0-5.3-3-8.5-7.3-8.5zm-4.2 6.8c.5-2.3 2-4 4.2-4s3.5 1.7 3.8 4h-8z"/>
</svg>