<svg xmlns="http://www.w3.org/2000/svg" viewBox="0 0 200 60" fill="#FFFFFF">
  <!-- IBM striped logo -->
  <!-- I -->
  <rect x="38" y="10" width="20" height="3.5"/>
  <rect x="44" y="15" width="8" height="3.5"/>
  <rect x="38" y="20" width="20" height="3.5"/>
  <rect x="44" y="25" width="8" height="3.5"/>
  <rect x="38" y="30" width="20" height="3.5"/>
  <rect x="44" y="35" width="8" height="3.5"/>
  <rect x="38" y="40" width="20" height="3.5"/>
  <rect x="38" y="45" width="20" height="3.5"/>
  <!-- B -->
  <rect x="62" y="10" width="20" height="3.5"/>
  <path d="M82 10h5c3.5 0 6 1.2 7.5 3.5h-12.5v-3.5z"/>
  <rect x="68" y="15" width="8" height="3.5"/>
  <rect x="84" y="15" width="8" height="3.5"/>
  <rect x="62" y="20" width="30" height="3.5"/>
  <rect x="68" y="25" width="8" height="3.5"/>
  <rect x="84" y="25" width="10" height="3.5"/>
  <rect x="62" y="30" width="32" height="3.5"/>
  <rect x="68" y="35" width="8" height="3.5"/>
  <rect x="84" y="35" width="10" height="3.5"/>
  <rect x="62" y="40" width="30" height="3.5"/>
  <rect x="62" y="45" width="20" height="3.5"/>
  <path d="M82 45h5c3.5 0 6-1.2 7.5-3.5h-12.5v3.5z"/>
  <!-- M -->
  <path d="M100 10h8l4 6 4-6h8v3.5h-6l-6 9-6-9h-6z"/>
  <rect x="100" y="15" width="8" height="3.5"/>
  <rect x="116" y="15" width="8" height="3.5"/>
  <rect x="100" y="20" width="24" height="3.5"/>
  <rect x="106" y="25" width="12" height="3.5"/>
  <rect x="100" y="30" width="8" height="3.5"/>
  <rect x="116" y="30" width="8" height="3.5"/>
  <rect x="106" y="35" width="12" height="3.5"/>
  <rect x="100" y="40" width="8" height="3.5"/>
  <rect x="116" y="40" width="8" height="3.5"/>
  <rect x="100" y="45" width="8" height="3.5"/>
  <rect x="116" y="45" width="8" height="3.5"/>
</svg>