<svg xmlns="http://www.w3.org/2000/svg" viewBox="0 0 160 180" fill="white">
  <!-- Roundtable ring of chairs -->
  <g transform="translate(80,80)">
    <rect x="-6" y="-72" width="12" height="18" rx="2" transform="rotate(0)" />
    <rect x="-6" y="-72" width="12" height="18" rx="2" transform="rotate(22.5)" />
    <rect x="-6" y="-72" width="12" height="18" rx="2" transform="rotate(45)" />
    <rect x="-6" y="-72" width="12" height="18" rx="2" transform="rotate(67.5)" />
    <rect x="-6" y="-72" width="12" height="18" rx="2" transform="rotate(90)" />
    <rect x="-6" y="-72" width="12" height="18" rx="2" transform="rotate(112.5)" />
    <rect x="-6" y="-72" width="12" height="18" rx="2" transform="rotate(135)" />
    <rect x="-6" y="-72" width="12" height="18" rx="2" transform="rotate(157.5)" />
    <rect x="-6" y="-72" width="12" height="18" rx="2" transform="rotate(180)" />
    <rect x="-6" y="-72" width="12" height="18" rx="2" transform="rotate(202.5)" />
    <rect x="-6" y="-72" width="12" height="18" rx="2" transform="rotate(225)" />
    <rect x="-6" y="-72" width="12" height="18" rx="2" transform="rotate(247.5)" />
    <rect x="-6" y="-72" width="12" height="18" rx="2" transform="rotate(270)" />
    <rect x="-6" y="-72" width="12" height="18" rx="2" transform="rotate(292.5)" />
    <rect x="-6" y="-72" width="12" height="18" rx="2" transform="rotate(315)" />
    <rect x="-6" y="-72" width="12" height="18" rx="2" transform="rotate(337.5)" />
    <circle cx="0" cy="0" r="46" fill="none" stroke="white" stroke-width="2.5" />
    <circle cx="0" cy="0" r="38" fill="none" stroke="white" stroke-width="1" />
  </g>
  <text x="80" y="168" text-anchor="middle" font-family="Georgia, 'Times New Roman', serif" font-size="28" font-weight="700" letter-spacing="6" fill="white">MDRT</text>
  <text x="120" y="155" text-anchor="middle" font-family="Georgia, serif" font-size="10" fill="white">®</text>
</svg>
