<svg xmlns="http://www.w3.org/2000/svg" viewBox="0 0 200 60" fill="#FFFFFF">
  <!-- Microsoft four squares -->
  <rect x="12" y="16" width="12" height="12"/>
  <rect x="26" y="16" width="12" height="12"/>
  <rect x="12" y="30" width="12" height="12"/>
  <rect x="26" y="30" width="12" height="12"/>
  <!-- Microsoft wordmark -->
  <path d="M48.5 23v17.5h-2.2V27.3L43 40.5h-1.6l-3.4-13.2v13.2H36V23h3l3.3 13.3L45.5 23h3zm3.3 3.6c0-.9.7-1.6 1.6-1.6s1.6.7 1.6 1.6-.7 1.6-1.6 1.6-1.6-.7-1.6-1.6zm.5 3.6h2.1v10.3h-2.1V30.2zm8.5-.2c1.4 0 2.5.5 3.3 1.4l-1.2 1.3c-.6-.6-1.3-.9-2-.9-1.6 0-2.7 1.3-2.7 3.2s1.1 3.2 2.7 3.2c.8 0 1.5-.3 2.1-1l1.2 1.3c-.8.9-1.9 1.5-3.4 1.5-2.8 0-4.8-2.1-4.8-5s2-5 4.8-5zm5.4-3.4h2.1v5.2c.7-1.1 1.8-1.8 3.2-1.8 2.1 0 3.3 1.4 3.3 3.6v7.1h-2.1v-6.5c0-1.5-.7-2.4-2-2.4-1.4 0-2.4 1-2.4 2.6v6.3h-2.1V26.6zm11.3 3.6c0-.9.7-1.6 1.6-1.6s1.6.7 1.6 1.6-.7 1.6-1.6 1.6-1.6-.7-1.6-1.6zm.5 3.6h2.1v10.3h-2.1V33.8zm-77.3-7.2v17h2.1v-17h-2.1z" transform="translate(62,-3)"/>
  <path d="M86 30c-2.6 0-4.5 2.1-4.5 5.2s1.9 5.2 4.5 5.2 4.5-2.1 4.5-5.2-1.9-5.2-4.5-5.2zm0 8.5c-1.5 0-2.4-1.3-2.4-3.3s.9-3.3 2.4-3.3 2.4 1.3 2.4 3.3-.9 3.3-2.4 3.3z" transform="translate(62,-3)"/>
  <path d="M98.5 32.5c-.5-.4-1.3-.6-2.2-.6-1.4 0-2.2.7-2.2 1.5 0 .9.9 1.2 1.9 1.4l.8.2c2 .4 3.2 1.3 3.2 3.1 0 2.1-1.8 3.3-4.2 3.3-1.7 0-3.1-.5-4-1.5l1.3-1.3c.6.7 1.6 1.1 2.8 1.1 1.3 0 2.1-.5 2.1-1.4 0-.8-.7-1.2-2-1.5l-.9-.2c-1.7-.4-3-1.2-3-3 0-1.9 1.7-3.3 4.1-3.3 1.5 0 2.8.4 3.6 1.2l-1.3 1z" transform="translate(62,-3)"/>
  <path d="M105.7 30c-2.6 0-4.5 2-4.5 5.2 0 3.3 1.8 5.2 4.7 5.2 1.5 0 2.8-.5 3.7-1.5l-1.2-1.2c-.6.7-1.4 1-2.4 1-1.5 0-2.6-1-2.7-2.8h6.7v-.8c0-3.5-1.8-5.1-4.3-5.1zm-2.4 4.2c.2-1.5 1.1-2.5 2.4-2.5s2.2.9 2.3 2.5h-4.7z" transform="translate(62,-3)"/>
  <path d="M117.4 31.5v-1.3h-2v-3l-2.1.6v2.4h-1.7v1.8h1.7v5.3c0 2.2 1 3.3 3.1 3.3.5 0 1-.1 1.3-.2v-1.8c-.2.1-.6.1-.9.1-.9 0-1.4-.5-1.4-1.5v-5.2h2z" transform="translate(56,-3)"/>
</svg>